<mxfile host="65bd71144e">
    <diagram id="AHXdZ5maVqutGtpor7hE" name="Page-1">
        <mxGraphModel dx="846" dy="779" grid="1" gridSize="10" guides="1" tooltips="1" connect="1" arrows="1" fold="1" page="1" pageScale="1" pageWidth="850" pageHeight="1100" math="0" shadow="0">
            <root>
                <mxCell id="0"/>
                <mxCell id="1" parent="0"/>
                <mxCell id="2" value="Imaging System 1&lt;br&gt;PACS/RIS" style="html=1;outlineConnect=0;whiteSpace=wrap;fillColor=#99ffff;shape=mxgraph.archimate3.application;appType=comp;archiType=square;" vertex="1" parent="1">
                    <mxGeometry x="40" y="360" width="150" height="75" as="geometry"/>
                </mxCell>
                <mxCell id="3" value="API-M&lt;br&gt;OAuth2 token" style="html=1;outlineConnect=0;whiteSpace=wrap;fillColor=#99ffff;shape=mxgraph.archimate3.application;appType=comp;archiType=square;" vertex="1" parent="1">
                    <mxGeometry x="295" y="267" width="150" height="75" as="geometry"/>
                </mxCell>
                <mxCell id="4" value="TSAS Sol Arch Demo API&lt;br&gt;/mhdpoc/FHIR/R4 (MHDS)&lt;br&gt;/mhdpoc/FHIR/R4/DiagnosticReport (proxy)&lt;br&gt;/oauth2/introspect" style="html=1;outlineConnect=0;whiteSpace=wrap;fillColor=#99ffff;shape=mxgraph.archimate3.application;appType=comp;archiType=square;" vertex="1" parent="1">
                    <mxGeometry x="250" y="360" width="240" height="75" as="geometry"/>
                </mxCell>
                <mxCell id="5" value="API-M" style="shape=umlFrame;whiteSpace=wrap;html=1;pointerEvents=0;" vertex="1" parent="1">
                    <mxGeometry x="220" y="190" width="300" height="330" as="geometry"/>
                </mxCell>
                <mxCell id="6" value="AWS - Tech Arch Account" style="shape=umlFrame;whiteSpace=wrap;html=1;pointerEvents=0;width=150;height=30;" vertex="1" parent="1">
                    <mxGeometry x="560" y="190" width="240" height="430" as="geometry"/>
                </mxCell>
                <mxCell id="7" value="MHDS Base endpoint" style="html=1;outlineConnect=0;whiteSpace=wrap;fillColor=#99ffff;shape=mxgraph.archimate3.application;appType=comp;archiType=square;" vertex="1" parent="1">
                    <mxGeometry x="610" y="240" width="150" height="75" as="geometry"/>
                </mxCell>
                <mxCell id="8" value="MHDS DocumentReference endpoint" style="html=1;outlineConnect=0;whiteSpace=wrap;fillColor=#99ffff;shape=mxgraph.archimate3.application;appType=comp;archiType=square;" vertex="1" parent="1">
                    <mxGeometry x="610" y="330" width="150" height="75" as="geometry"/>
                </mxCell>
                <mxCell id="9" value="DiagnosticReport proxy endpoint" style="html=1;outlineConnect=0;whiteSpace=wrap;fillColor=#99ffff;shape=mxgraph.archimate3.application;appType=comp;archiType=square;" vertex="1" parent="1">
                    <mxGeometry x="610" y="420" width="150" height="75" as="geometry"/>
                </mxCell>
                <mxCell id="10" value="alpha token introspection endpoint" style="html=1;outlineConnect=0;whiteSpace=wrap;fillColor=#99ffff;shape=mxgraph.archimate3.application;appType=comp;archiType=square;" vertex="1" parent="1">
                    <mxGeometry x="610" y="510" width="150" height="75" as="geometry"/>
                </mxCell>
                <mxCell id="11" value="Imaging System 2&lt;br&gt;PACS/RIS" style="html=1;outlineConnect=0;whiteSpace=wrap;fillColor=#99ffff;shape=mxgraph.archimate3.application;appType=comp;archiType=square;" vertex="1" parent="1">
                    <mxGeometry x="900" y="420" width="150" height="75" as="geometry"/>
                </mxCell>
                <mxCell id="12" value="" style="edgeStyle=elbowEdgeStyle;html=1;endArrow=open;endFill=0;dashed=1;dashPattern=1 1;rounded=0;entryX=0;entryY=0.5;entryDx=0;entryDy=0;entryPerimeter=0;exitX=1;exitY=0.25;exitDx=0;exitDy=0;exitPerimeter=0;strokeWidth=3;startArrow=open;startFill=0;" edge="1" parent="1" source="2" target="3">
                    <mxGeometry width="160" relative="1" as="geometry">
                        <mxPoint x="200" y="397.5" as="sourcePoint"/>
                        <mxPoint x="305" y="277.5" as="targetPoint"/>
                        <Array as="points">
                            <mxPoint x="230" y="340"/>
                        </Array>
                    </mxGeometry>
                </mxCell>
                <mxCell id="13" value="" style="edgeStyle=elbowEdgeStyle;html=1;endArrow=open;endFill=0;dashed=1;dashPattern=1 1;rounded=0;entryX=0;entryY=0.5;entryDx=0;entryDy=0;entryPerimeter=0;exitX=1;exitY=0.5;exitDx=0;exitDy=0;exitPerimeter=0;strokeWidth=3;startArrow=open;startFill=0;strokeColor=#2D7600;" edge="1" parent="1" source="2" target="4">
                    <mxGeometry width="160" relative="1" as="geometry">
                        <mxPoint x="200" y="389" as="sourcePoint"/>
                        <mxPoint x="305" y="288" as="targetPoint"/>
                        <Array as="points">
                            <mxPoint x="220" y="400"/>
                        </Array>
                    </mxGeometry>
                </mxCell>
                <mxCell id="14" value="get access_token" style="strokeWidth=1;shadow=0;dashed=0;align=center;html=1;shape=mxgraph.mockup.text.callout;linkText=;textSize=17;textColor=#666666;callDir=NW;callStyle=line;fontSize=17;fontColor=#666666;align=left;verticalAlign=top;strokeColor=#666666;" vertex="1" parent="1">
                    <mxGeometry x="30" y="210" width="200" height="100" as="geometry"/>
                </mxCell>
                <mxCell id="15" value="search for &lt;br&gt;DocumentReferences" style="strokeWidth=1;shadow=0;dashed=0;align=center;html=1;shape=mxgraph.mockup.text.callout;linkText=;textSize=17;textColor=#666666;callDir=NW;callStyle=line;fontSize=17;fontColor=#666666;align=left;verticalAlign=top;strokeColor=#666666;" vertex="1" parent="1">
                    <mxGeometry x="50" y="300" width="160" height="100" as="geometry"/>
                </mxCell>
                <mxCell id="16" value="" style="edgeStyle=elbowEdgeStyle;html=1;endArrow=open;endFill=0;dashed=1;dashPattern=1 1;rounded=0;entryX=0;entryY=0.5;entryDx=0;entryDy=0;entryPerimeter=0;exitX=1;exitY=0.5;exitDx=0;exitDy=0;exitPerimeter=0;strokeWidth=3;startArrow=open;startFill=0;strokeColor=#9933FF;" edge="1" parent="1">
                    <mxGeometry width="160" relative="1" as="geometry">
                        <mxPoint x="190" y="418" as="sourcePoint"/>
                        <mxPoint x="250" y="418" as="targetPoint"/>
                        <Array as="points">
                            <mxPoint x="220" y="420"/>
                        </Array>
                    </mxGeometry>
                </mxCell>
                <mxCell id="17" value="retrieve &lt;br&gt;DiagnosticReport" style="strokeWidth=1;shadow=0;dashed=0;align=center;html=1;shape=mxgraph.mockup.text.callout;linkText=;textSize=17;textColor=#666666;callDir=SW;callStyle=line;fontSize=17;fontColor=#666666;align=left;verticalAlign=bottom;strokeColor=#666666;" vertex="1" parent="1">
                    <mxGeometry x="30" y="420" width="200" height="100" as="geometry"/>
                </mxCell>
                <mxCell id="18" value="" style="edgeStyle=elbowEdgeStyle;html=1;endArrow=open;endFill=0;dashed=1;dashPattern=1 1;rounded=0;entryX=0;entryY=0.5;entryDx=0;entryDy=0;entryPerimeter=0;exitX=1;exitY=0.5;exitDx=0;exitDy=0;exitPerimeter=0;strokeWidth=3;startArrow=open;startFill=0;strokeColor=#2D7600;" edge="1" parent="1">
                    <mxGeometry width="160" relative="1" as="geometry">
                        <mxPoint x="490" y="385" as="sourcePoint"/>
                        <mxPoint x="610" y="385.5" as="targetPoint"/>
                        <Array as="points">
                            <mxPoint x="520" y="387"/>
                        </Array>
                    </mxGeometry>
                </mxCell>
                <mxCell id="19" value="" style="edgeStyle=elbowEdgeStyle;html=1;endArrow=open;endFill=0;dashed=1;dashPattern=1 1;rounded=0;entryX=0;entryY=0.5;entryDx=0;entryDy=0;entryPerimeter=0;exitX=1;exitY=0.75;exitDx=0;exitDy=0;exitPerimeter=0;strokeWidth=3;startArrow=open;startFill=0;strokeColor=#9933FF;" edge="1" parent="1" source="4" target="9">
                    <mxGeometry width="160" relative="1" as="geometry">
                        <mxPoint x="500" y="419" as="sourcePoint"/>
                        <mxPoint x="560" y="419" as="targetPoint"/>
                        <Array as="points">
                            <mxPoint x="530" y="421"/>
                        </Array>
                    </mxGeometry>
                </mxCell>
                <mxCell id="20" value="" style="edgeStyle=elbowEdgeStyle;html=1;endArrow=open;endFill=0;dashed=1;dashPattern=1 1;rounded=0;entryX=0;entryY=0.5;entryDx=0;entryDy=0;entryPerimeter=0;exitX=1;exitY=0.5;exitDx=0;exitDy=0;exitPerimeter=0;strokeWidth=3;startArrow=open;startFill=0;strokeColor=#9933FF;" edge="1" parent="1" source="9" target="11">
                    <mxGeometry width="160" relative="1" as="geometry">
                        <mxPoint x="780" y="449" as="sourcePoint"/>
                        <mxPoint x="900" y="491" as="targetPoint"/>
                        <Array as="points">
                            <mxPoint x="820" y="454"/>
                        </Array>
                    </mxGeometry>
                </mxCell>
                <mxCell id="21" value="" style="edgeStyle=elbowEdgeStyle;html=1;endArrow=open;endFill=0;dashed=1;dashPattern=1 1;rounded=0;entryX=0.25;entryY=1;entryDx=0;entryDy=0;entryPerimeter=0;exitX=0.75;exitY=1;exitDx=0;exitDy=0;exitPerimeter=0;strokeWidth=3;startArrow=open;startFill=0;strokeColor=#FF3333;elbow=vertical;" edge="1" parent="1" source="4" target="11">
                    <mxGeometry width="160" relative="1" as="geometry">
                        <mxPoint x="770" y="468" as="sourcePoint"/>
                        <mxPoint x="910" y="468" as="targetPoint"/>
                        <Array as="points">
                            <mxPoint x="670" y="600"/>
                        </Array>
                    </mxGeometry>
                </mxCell>
                <mxCell id="22" value="" style="edgeStyle=elbowEdgeStyle;html=1;endArrow=open;endFill=0;dashed=1;dashPattern=1 1;rounded=0;entryX=0;entryY=0.5;entryDx=0;entryDy=0;entryPerimeter=0;exitX=0.871;exitY=1.027;exitDx=0;exitDy=0;exitPerimeter=0;strokeWidth=3;startArrow=open;startFill=0;strokeColor=#FF3333;" edge="1" parent="1" source="4" target="10">
                    <mxGeometry width="160" relative="1" as="geometry">
                        <mxPoint x="500" y="408" as="sourcePoint"/>
                        <mxPoint x="910" y="449" as="targetPoint"/>
                        <Array as="points">
                            <mxPoint x="459" y="490"/>
                        </Array>
                    </mxGeometry>
                </mxCell>
                <mxCell id="23" value="" style="edgeStyle=elbowEdgeStyle;html=1;endArrow=open;endFill=0;dashed=1;dashPattern=1 1;rounded=0;entryX=0.75;entryY=0;entryDx=0;entryDy=0;entryPerimeter=0;exitX=0.75;exitY=0;exitDx=0;exitDy=0;exitPerimeter=0;strokeWidth=3;startArrow=open;startFill=0;elbow=vertical;" edge="1" parent="1" source="3" target="11">
                    <mxGeometry width="160" relative="1" as="geometry">
                        <mxPoint x="200" y="389" as="sourcePoint"/>
                        <mxPoint x="305" y="288" as="targetPoint"/>
                        <Array as="points">
                            <mxPoint x="710" y="230"/>
                            <mxPoint x="710" y="230"/>
                            <mxPoint x="970" y="280"/>
                        </Array>
                    </mxGeometry>
                </mxCell>
                <mxCell id="24" value="get access_token" style="strokeWidth=1;shadow=0;dashed=0;align=center;html=1;shape=mxgraph.mockup.text.callout;linkText=;textSize=17;textColor=#666666;callDir=NW;callStyle=line;fontSize=17;fontColor=#666666;align=left;verticalAlign=top;strokeColor=#666666;" vertex="1" parent="1">
                    <mxGeometry x="710" y="130" width="200" height="100" as="geometry"/>
                </mxCell>
                <mxCell id="25" value="" style="edgeStyle=elbowEdgeStyle;html=1;endArrow=open;endFill=0;dashed=1;dashPattern=1 1;rounded=0;entryX=0.5;entryY=1;entryDx=0;entryDy=0;entryPerimeter=0;exitX=0.5;exitY=1;exitDx=0;exitDy=0;exitPerimeter=0;strokeWidth=3;startArrow=open;startFill=0;strokeColor=#0000FF;" edge="1" parent="1" source="4" target="11">
                    <mxGeometry width="160" relative="1" as="geometry">
                        <mxPoint x="786" y="470" as="sourcePoint"/>
                        <mxPoint x="966" y="583" as="targetPoint"/>
                        <Array as="points">
                            <mxPoint x="650" y="640"/>
                        </Array>
                    </mxGeometry>
                </mxCell>
                <mxCell id="26" value="publish&lt;div&gt;DocumentReference&lt;/div&gt;" style="strokeWidth=1;shadow=0;dashed=0;align=center;html=1;shape=mxgraph.mockup.text.callout;linkText=;textSize=17;textColor=#666666;callDir=NE;callStyle=line;fontSize=17;fontColor=#666666;align=right;verticalAlign=top;strokeColor=#666666;" vertex="1" parent="1">
                    <mxGeometry x="880" y="540" width="200" height="100" as="geometry"/>
                </mxCell>
                <mxCell id="27" value="introspect&lt;br&gt;access_token" style="strokeWidth=1;shadow=0;dashed=0;align=center;html=1;shape=mxgraph.mockup.text.callout;linkText=;textSize=17;textColor=#666666;callDir=SW;callStyle=line;fontSize=17;fontColor=#666666;align=left;verticalAlign=bottom;strokeColor=#666666;" vertex="1" parent="1">
                    <mxGeometry x="230" y="531" width="200" height="100" as="geometry"/>
                </mxCell>
                <mxCell id="28" value="National Record Locator" style="html=1;outlineConnect=0;whiteSpace=wrap;fillColor=#99ffff;shape=mxgraph.archimate3.application;appType=serv;archiType=rounded" vertex="1" parent="1">
                    <mxGeometry x="840" y="295" width="150" height="75" as="geometry"/>
                </mxCell>
                <mxCell id="29" value="" style="edgeStyle=elbowEdgeStyle;html=1;endArrow=open;endFill=0;dashed=1;dashPattern=1 1;rounded=0;entryX=0;entryY=0.5;entryDx=0;entryDy=0;entryPerimeter=0;exitX=1;exitY=0.25;exitDx=0;exitDy=0;exitPerimeter=0;strokeWidth=3;startArrow=open;startFill=0;strokeColor=#0000FF;" edge="1" parent="1">
                    <mxGeometry width="160" relative="1" as="geometry">
                        <mxPoint x="490" y="367.75" as="sourcePoint"/>
                        <mxPoint x="610" y="266.5" as="targetPoint"/>
                        <Array as="points">
                            <mxPoint x="530" y="289"/>
                        </Array>
                    </mxGeometry>
                </mxCell>
                <mxCell id="30" value="" style="edgeStyle=elbowEdgeStyle;html=1;endArrow=open;endFill=0;dashed=1;dashPattern=1 1;rounded=0;entryX=0.5;entryY=0;entryDx=0;entryDy=0;entryPerimeter=0;exitX=1;exitY=0.25;exitDx=0;exitDy=0;exitPerimeter=0;strokeWidth=3;startArrow=open;startFill=0;strokeColor=#0000FF;" edge="1" parent="1" source="7" target="28">
                    <mxGeometry width="160" relative="1" as="geometry">
                        <mxPoint x="500" y="377.75" as="sourcePoint"/>
                        <mxPoint x="620" y="276.5" as="targetPoint"/>
                        <Array as="points">
                            <mxPoint x="915" y="260"/>
                        </Array>
                    </mxGeometry>
                </mxCell>
                <mxCell id="31" value="" style="edgeStyle=elbowEdgeStyle;html=1;endArrow=open;endFill=0;dashed=1;dashPattern=1 1;rounded=0;exitX=1;exitY=0.5;exitDx=0;exitDy=0;exitPerimeter=0;strokeWidth=3;startArrow=open;startFill=0;strokeColor=#2D7600;" edge="1" parent="1" source="8" target="28">
                    <mxGeometry width="160" relative="1" as="geometry">
                        <mxPoint x="770" y="395" as="sourcePoint"/>
                        <mxPoint x="890" y="395.5" as="targetPoint"/>
                        <Array as="points">
                            <mxPoint x="810" y="350"/>
                        </Array>
                    </mxGeometry>
                </mxCell>
            </root>
        </mxGraphModel>
    </diagram>
</mxfile>
